<svg width="524" height="433" viewBox="0 0 524 433" fill="none" xmlns="http://www.w3.org/2000/svg">
<path d="M408.369 62.7136H280.957C278.08 62.7136 275.749 65.0463 275.749 67.9235V157.836C275.749 160.713 278.08 163.045 280.957 163.045H408.369C411.241 163.045 413.574 160.713 413.574 157.836V67.9235C413.574 65.0463 411.241 62.7136 408.369 62.7136Z" fill="#FEBB94"/>
<path d="M294.05 80.7922H290.277L289.629 82.6334H288.086L291.315 73.6087H293.026L296.254 82.6334H294.698L294.05 80.7922ZM293.635 79.5864L292.17 75.3979L290.692 79.5864H293.635ZM297.165 79.0289C297.165 78.3115 297.312 77.6761 297.606 77.1228C297.908 76.5695 298.314 76.1414 298.824 75.839C299.343 75.5278 299.917 75.3725 300.548 75.3725C301.015 75.3725 301.473 75.4759 301.923 75.6837C302.381 75.8821 302.744 76.1502 303.012 76.4874V73.0382H304.502V82.6334H303.012V81.557C302.77 81.903 302.432 82.1882 302 82.4132C301.577 82.6376 301.089 82.7498 300.535 82.7498C299.913 82.7498 299.343 82.5945 298.824 82.2833C298.314 81.9632 297.908 81.5227 297.606 80.9605C297.312 80.3901 297.165 79.7464 297.165 79.0289ZM303.012 79.0549C303.012 78.5619 302.908 78.1343 302.7 77.7711C302.502 77.408 302.238 77.1311 301.91 76.9409C301.581 76.7508 301.227 76.6557 300.847 76.6557C300.466 76.6557 300.112 76.7508 299.784 76.9409C299.455 77.1228 299.187 77.395 298.98 77.7582C298.781 78.1125 298.682 78.5359 298.682 79.0289C298.682 79.5214 298.781 79.9537 298.98 80.3252C299.187 80.6971 299.455 80.9824 299.784 81.1813C300.12 81.3715 300.475 81.4666 300.847 81.4666C301.227 81.4666 301.581 81.3715 301.91 81.1813C302.238 80.9912 302.502 80.7143 302.7 80.3511C302.908 79.9797 303.012 79.5474 303.012 79.0549ZM309.037 82.7498C308.475 82.7498 307.969 82.6506 307.52 82.4516C307.079 82.2443 306.729 81.9679 306.47 81.6219C306.21 81.2676 306.072 80.8743 306.055 80.4421H307.584C307.61 80.7444 307.753 80.9995 308.012 81.2068C308.28 81.4058 308.613 81.5055 309.011 81.5055C309.425 81.5055 309.745 81.4276 309.97 81.2718C310.203 81.1076 310.32 80.9003 310.32 80.6493C310.32 80.3818 310.19 80.1828 309.931 80.0529C309.68 79.9236 309.279 79.7807 308.726 79.6254C308.189 79.4783 307.753 79.3355 307.416 79.1973C307.079 79.0591 306.785 78.8471 306.535 78.5619C306.292 78.2767 306.171 77.9005 306.171 77.434C306.171 77.0537 306.284 76.7077 306.509 76.3965C306.733 76.077 307.053 75.826 307.468 75.6447C307.891 75.4629 308.375 75.3725 308.92 75.3725C309.732 75.3725 310.385 75.5798 310.878 75.9949C311.379 76.4011 311.646 76.9586 311.681 77.6672H310.203C310.177 77.3472 310.048 77.0926 309.814 76.9025C309.581 76.7123 309.266 76.6167 308.868 76.6167C308.479 76.6167 308.181 76.6905 307.973 76.8375C307.766 76.9846 307.662 77.1789 307.662 77.421C307.662 77.6111 307.731 77.7711 307.869 77.9005C308.008 78.0304 308.176 78.1343 308.375 78.2117C308.574 78.2808 308.868 78.3717 309.257 78.4839C309.775 78.6226 310.199 78.765 310.527 78.912C310.865 79.0502 311.154 79.258 311.396 79.5344C311.638 79.8108 311.763 80.1786 311.772 80.6364C311.772 81.0426 311.659 81.4058 311.435 81.7258C311.21 82.0453 310.891 82.2963 310.476 82.4776C310.069 82.6594 309.59 82.7498 309.037 82.7498Z" fill="white"/>
<path d="M370.909 118.899C370.909 124.092 369.369 129.167 366.485 133.484C363.601 137.801 359.502 141.166 354.706 143.153C349.91 145.14 344.632 145.659 339.541 144.647C334.45 143.634 329.773 141.134 326.102 137.462C322.431 133.791 319.931 129.113 318.918 124.021C317.906 118.928 318.425 113.65 320.412 108.853C322.399 104.056 325.763 99.9562 330.079 97.0718C334.396 94.1873 339.47 92.6475 344.661 92.6475" stroke="white" stroke-width="17.1948" stroke-miterlimit="10"/>
<path d="M349.551 87.6277C356.512 87.6277 363.188 90.3937 368.111 95.3168C373.033 100.24 375.798 106.917 375.798 113.88" stroke="#1C85E8" stroke-width="17.1948" stroke-miterlimit="10"/>
<path d="M287.839 144.137H303.202" stroke="white" stroke-width="6.72632" stroke-miterlimit="10" stroke-linecap="round"/>
<path opacity="0.4" d="M287.839 152.739H319.588" stroke="white" stroke-width="6.72632" stroke-miterlimit="10" stroke-linecap="round"/>
<path d="M375.798 144.223H391.161" stroke="white" stroke-width="6.72632" stroke-miterlimit="10" stroke-linecap="round"/>
<path opacity="0.4" d="M375.798 152.826H407.548" stroke="white" stroke-width="6.72632" stroke-miterlimit="10" stroke-linecap="round"/>
<path d="M49.1503 54.3512H234.109C239.021 54.3512 243.733 56.3031 247.206 59.7772C250.68 63.2513 252.631 67.9634 252.631 72.8766V83.9645H30.6279V72.8766C30.6279 67.9634 32.5795 63.2513 36.053 59.7772C39.5265 56.3031 44.2379 54.3512 49.1503 54.3512Z" fill="#1C85E8"/>
<path d="M30.6279 83.9645H252.631V293.377C252.631 297.28 251.081 301.024 248.322 303.783C245.562 306.543 241.82 308.094 237.917 308.094H45.3422C41.4396 308.094 37.697 306.543 34.9378 303.783C32.178 301.024 30.6279 297.28 30.6279 293.377V83.9645Z" fill="url(#paint0_linear_718_35)"/>
<path opacity="0.6" d="M143.84 268.172C186.352 268.172 220.815 233.704 220.815 191.184C220.815 148.665 186.352 114.197 143.84 114.197C101.327 114.197 66.8647 148.665 66.8647 191.184C66.8647 233.704 101.327 268.172 143.84 268.172Z" stroke="white" stroke-width="30" stroke-miterlimit="10"/>
<path d="M51.1315 74.4373C53.6409 74.4373 55.675 72.4028 55.675 69.8929C55.675 67.3836 53.6409 65.3491 51.1315 65.3491C48.622 65.3491 46.5879 67.3836 46.5879 69.8929C46.5879 72.4028 48.622 74.4373 51.1315 74.4373Z" fill="white"/>
<path d="M69.482 74.4373C71.9915 74.4373 74.0256 72.4028 74.0256 69.8929C74.0256 67.3836 71.9915 65.3491 69.482 65.3491C66.9726 65.3491 64.9385 67.3836 64.9385 69.8929C64.9385 72.4028 66.9726 74.4373 69.482 74.4373Z" fill="white"/>
<path d="M86.7247 74.4373C89.2336 74.4373 91.2678 72.4028 91.2678 69.8929C91.2678 67.3836 89.2336 65.3491 86.7247 65.3491C84.2153 65.3491 82.1812 67.3836 82.1812 69.8929C82.1812 72.4028 84.2153 74.4373 86.7247 74.4373Z" fill="white"/>
<path d="M294.271 178.417H479.232C484.14 178.417 488.852 180.369 492.327 183.843C495.802 187.317 497.75 192.029 497.75 196.942V208.03H275.749V196.942C275.749 192.029 277.7 187.317 281.174 183.843C284.648 180.369 289.358 178.417 294.271 178.417Z" fill="#1C85E8"/>
<path d="M275.749 208.03H497.75V417.443C497.75 421.346 496.202 425.089 493.444 427.849C490.685 430.609 486.94 432.16 483.039 432.16H290.463C286.561 432.16 282.818 430.609 280.058 427.849C277.299 425.089 275.749 421.346 275.749 417.443V208.03Z" fill="url(#paint1_linear_718_35)"/>
<path opacity="0.6" d="M398.284 397.082C440.798 397.082 475.258 362.614 475.258 320.095C475.258 277.576 440.798 243.107 398.284 243.107C355.772 243.107 321.309 277.576 321.309 320.095C321.309 362.614 355.772 397.082 398.284 397.082Z" stroke="white" stroke-width="30" stroke-miterlimit="10"/>
<path d="M296.252 198.503C298.761 198.503 300.796 196.468 300.796 193.959C300.796 191.449 298.761 189.415 296.252 189.415C293.743 189.415 291.709 191.449 291.709 193.959C291.709 196.468 293.743 198.503 296.252 198.503Z" fill="white"/>
<path d="M314.603 198.503C317.112 198.503 319.146 196.468 319.146 193.959C319.146 191.449 317.112 189.415 314.603 189.415C312.094 189.415 310.06 191.449 310.06 193.959C310.06 196.468 312.094 198.503 314.603 198.503Z" fill="white"/>
<path d="M331.845 198.503C334.355 198.503 336.389 196.468 336.389 193.959C336.389 191.449 334.355 189.415 331.845 189.415C329.336 189.415 327.302 191.449 327.302 193.959C327.302 196.468 329.336 198.503 331.845 198.503Z" fill="white"/>
<path d="M364.333 339.469L353.386 432.211H397.37L422.472 340.02L364.333 339.469Z" fill="#1F2D49"/>
<path d="M398.75 427.142L393.577 398.671L403.833 367.586H419.724L398.75 427.142Z" fill="#0D1B33"/>
<path d="M445.81 340.02C445.499 345.586 445.499 351.166 445.81 356.731C447.093 374.723 443.426 425.298 443.457 432.211H404.404C404.24 422.634 401.809 340.414 401.809 340.414L445.81 340.02Z" fill="#1F2D49"/>
<path d="M363.5 346.116L445.811 356.731V340.02L364.334 339.469L363.5 346.116Z" fill="#0D1B33"/>
<path d="M379.101 245.412C381.399 234.069 375.997 234.361 374.198 232.557C374.198 232.557 367.453 226.994 362.314 232.18C356.873 237.665 325.688 280.276 325.688 280.276L345.201 298.225L348.868 293.847L358.369 282.514L368.531 270.401L369.794 269.023L383.502 253.493C383.502 253.493 377.803 251.383 379.101 245.412Z" fill="#FEBB94"/>
<path d="M387.262 247.345C389.893 239.49 385.659 230.99 377.805 228.359C369.952 225.729 361.453 229.963 358.824 237.818C356.193 245.672 360.427 254.172 368.28 256.803C376.133 259.434 384.632 255.199 387.262 247.345Z" fill="#FEBB94"/>
<path d="M369.614 268.962C370.007 266.592 370.794 261.85 371.641 257.528L376.143 236.612C376.143 236.612 364.052 254.485 358.482 266.935C354.356 276.265 349.57 285.773 348.779 293.817L358.279 282.484L368.441 270.371L369.614 268.962Z" fill="#FF967C"/>
<path d="M330.428 225.042C329.412 215.45 332.022 214.985 332.058 209.784C332.076 204.701 339.749 195.292 336.089 195.482C332.43 195.673 329.86 199.171 329.86 199.171C329.317 194.611 330.234 187.024 325.57 184.161C320.905 181.298 319.806 182.684 316.008 183.823C305.867 186.937 311.528 200.358 311.631 204.611C311.723 207.288 316.431 217.301 316.644 219.148L318.143 226.269L330.428 225.042Z" fill="#FFCCB3"/>
<path d="M324.649 197.559L323.262 183.79L324.649 197.559Z" fill="#E56441"/>
<path d="M324.649 197.559L323.262 183.79" stroke="#E56441" stroke-width="1.20133" stroke-linecap="round"/>
<path d="M319.905 197.712L317.649 184.485L319.905 197.712Z" fill="#E56441"/>
<path d="M319.905 197.712L317.649 184.485" stroke="#E56441" stroke-width="1.20133" stroke-linecap="round"/>
<path d="M314.332 197.742L313.191 189.827L314.332 197.742Z" fill="#E56441"/>
<path d="M314.332 197.742L313.191 189.827" stroke="#E56441" stroke-width="1.20133" stroke-linecap="round"/>
<path d="M322.019 208.071C323.676 204.197 327.975 200.468 327.975 200.468L322.019 208.071Z" fill="#E56441"/>
<path d="M322.019 208.071C323.676 204.197 327.975 200.468 327.975 200.468" stroke="#E56441" stroke-width="1.20133" stroke-linecap="round"/>
<path d="M348.195 284.1L331.969 220.034C331.855 219.649 331.604 219.321 331.263 219.112C330.921 218.902 330.515 218.827 330.121 218.899L317.885 221.232C317.3 221.35 316.78 221.681 316.426 222.161C316.072 222.641 315.909 223.236 315.969 223.829L322.71 290.439L348.195 284.1Z" fill="#FEBB94"/>
<path d="M335.817 302.004C343.155 302.004 349.105 296.054 349.105 288.714C349.105 281.374 343.155 275.425 335.817 275.425C328.478 275.425 322.53 281.374 322.53 288.714C322.53 296.054 328.478 302.004 335.817 302.004Z" fill="#FEBB94"/>
<path d="M389.456 221.704C389.456 221.704 374.266 226.187 370.444 227.786C366.622 229.385 366.367 235.782 366.112 240.313C365.934 243.487 365.333 291.509 365.569 321.7C365.619 328.15 364.417 332.243 363.644 335.828C363.432 336.783 363.318 337.757 363.302 338.735C363.297 339.079 363.36 339.42 363.487 339.74C363.614 340.059 363.803 340.35 364.043 340.596C364.283 340.843 364.569 341.039 364.886 341.174C365.202 341.31 365.541 341.381 365.885 341.385L443.65 342.112C443.65 342.112 447.099 342.613 446.268 338.678C445.442 334.373 444.99 330.006 444.917 325.624C444.138 294.267 443.993 241.75 443.655 239.264C443.146 235.533 447.151 232.32 442.808 230.441L421.838 222.811L389.456 221.704Z" fill="#FEBB94"/>
<path d="M428.3 256.367C428.3 256.367 429.479 299.832 429.23 314.319C429.079 323.347 418.758 327.171 418.727 332.399C418.711 335.491 427.069 333.567 430.757 332.365C439.052 329.662 444.512 333.334 444.512 333.334L442.299 254.13L428.3 256.367Z" fill="#FF967C"/>
<path d="M392.966 206.343L397.603 230.567L399.241 232.301C399.241 232.301 398.592 233.077 400.456 231.208C404.849 226.803 416.42 221.433 415.942 219.703C415.257 217.224 413.267 201.782 413.267 201.782L392.966 206.343Z" fill="#FFCCB3"/>
<path d="M392.777 207.953H404.994L391.574 228.801L392.777 207.953Z" fill="#FF967C"/>
<path d="M428.155 197.406C431.723 188.563 420.82 187.441 418.934 187.325C417.049 187.208 418.311 172.901 418.311 172.901C418.311 172.901 399.042 163.193 393.601 165.506C393.601 165.506 385.789 181.679 382.096 192.429C378.405 203.178 380 208.963 383.877 210.528C389.019 213.125 395.774 213.95 400.603 212.755C409.205 210.628 414.665 203.761 414.665 203.761C414.81 203.74 414.893 203.73 414.893 203.73C414.893 203.73 424.789 205.757 428.155 197.406Z" fill="#FFCCB3"/>
<path d="M422.975 205.177C429.931 200.322 435.78 194.894 436.886 188.005C439.12 174.124 431.333 170.769 431.333 170.769C436.512 160.933 424.7 155.62 418.607 153.637C398.469 147.082 386.19 154.195 385.333 161.989C384.969 165.253 385.493 168.312 387.148 170.821C387.092 173.227 387.341 175.63 387.889 177.973L391.218 171.811C391.87 172.648 392.726 173.303 393.704 173.714C404.642 178.926 415.864 173.148 415.864 173.148C411.491 178.203 411.459 189.396 411.74 191.734C412.145 195.105 414.228 192.642 414.228 192.642C416.28 189.329 423.905 186.912 425.9 193.785C427.458 199.14 413.412 204.411 413.412 204.411L414.82 212.756C417.438 213.292 417.049 210.524 417.745 211.448C418.441 212.372 419.916 212.967 420.202 210.132C420.487 207.298 422.981 205.174 422.981 205.174L422.975 205.177Z" fill="#BC775C"/>
<path d="M401.188 189.317C401.817 188.099 401.681 186.779 400.884 186.366C400.087 185.954 398.931 186.606 398.301 187.823C397.672 189.04 397.808 190.36 398.605 190.773C399.402 191.185 400.559 190.533 401.188 189.317Z" fill="#080B09"/>
<path d="M390.242 183.564C390.871 182.347 390.734 181.026 389.938 180.614C389.14 180.201 387.984 180.854 387.354 182.071C386.725 183.287 386.861 184.608 387.658 185.021C388.456 185.433 389.612 184.781 390.242 183.564Z" fill="#080B09"/>
<path d="M391.623 187.615C391.623 187.615 392.322 190.79 390.219 190.271C388.23 189.707 386.751 190.567 388.31 192.806" stroke="#E56441" stroke-width="1.20133" stroke-linecap="round"/>
<path d="M387.939 195.439L387.947 195.442L387.954 195.445C389.17 195.867 391.597 196.709 393.202 197.297L393.205 197.298C393.257 197.316 393.303 197.348 393.338 197.391C393.373 197.434 393.396 197.486 393.403 197.541C393.411 197.595 393.403 197.651 393.382 197.702C393.361 197.751 393.327 197.794 393.284 197.826C392.814 198.128 392.209 198.475 391.567 198.743C390.92 199.014 390.255 199.194 389.665 199.178C389.085 199.163 388.586 198.961 388.223 198.466C387.851 197.958 387.598 197.107 387.605 195.743L387.606 195.722L387.602 195.702C387.596 195.659 387.601 195.615 387.617 195.574C387.633 195.534 387.659 195.498 387.694 195.471C387.728 195.445 387.768 195.428 387.812 195.422C387.855 195.416 387.899 195.422 387.939 195.439Z" fill="#E56441" stroke="#E56441"/>
<path d="M406.391 186.147L406.212 186.35C405.978 186.669 405.626 186.882 405.235 186.942C404.844 187.003 404.445 186.907 404.125 186.674L398.729 182.53C398.459 182.34 398.271 182.056 398.2 181.734C398.13 181.412 398.184 181.075 398.351 180.791C398.444 180.612 398.575 180.455 398.734 180.33C398.893 180.205 399.076 180.115 399.273 180.067C399.468 180.018 399.673 180.012 399.871 180.048C400.07 180.084 400.259 180.162 400.426 180.277L406.001 184.217C406.156 184.316 406.289 184.445 406.393 184.597C406.497 184.748 406.569 184.919 406.606 185.1C406.642 185.28 406.642 185.465 406.605 185.645C406.568 185.825 406.495 185.996 406.391 186.147Z" fill="#080B09"/>
<path d="M387.423 174.994L394.12 176.316C394.318 176.358 394.505 176.441 394.668 176.56C394.831 176.68 394.968 176.832 395.067 177.007C395.168 177.183 395.229 177.378 395.248 177.579C395.267 177.78 395.243 177.983 395.179 178.174C395.087 178.491 394.88 178.762 394.599 178.933C394.317 179.105 393.982 179.164 393.658 179.099L386.937 178.046C386.548 177.975 386.203 177.752 385.977 177.427C385.752 177.102 385.663 176.701 385.732 176.311L385.756 176.042C385.794 175.862 385.867 175.691 385.972 175.541C386.077 175.39 386.211 175.262 386.367 175.164C386.522 175.066 386.696 175 386.878 174.971C387.059 174.942 387.245 174.949 387.423 174.994Z" fill="#080B09"/>
<path d="M420.191 258.468L370.484 262.774C368.94 262.908 367.796 264.269 367.93 265.813L373.34 328.282C373.473 329.826 374.834 330.97 376.378 330.836L426.082 326.53C427.63 326.397 428.773 325.036 428.638 323.492L423.23 261.023C423.095 259.478 421.734 258.335 420.191 258.468Z" fill="#1C85E8"/>
<path d="M375.675 270.061L396.172 268.286" stroke="white" stroke-width="5.04786" stroke-miterlimit="10" stroke-linecap="round"/>
<path d="M376.464 277.447L385.807 276.637" stroke="white" stroke-width="5.04786" stroke-miterlimit="10" stroke-linecap="round"/>
<path d="M444.013 242.667C436.362 233.085 432.923 237.674 430.232 237.908C430.232 237.908 421.127 239.606 421.843 247.309C422.602 255.461 436.003 309.784 436.003 309.784L464.126 307.67L462.791 300.179L460.049 284.751L457.124 268.255L456.859 266.291L453.571 244.588C453.571 244.588 447.977 247.785 444.013 242.667Z" fill="#FEBB94"/>
<path d="M445.904 259.209C453.384 254.616 455.721 244.831 451.135 237.351C446.543 229.871 436.756 227.53 429.276 232.122C421.802 236.714 419.459 246.5 424.051 253.98C428.643 261.46 438.424 263.801 445.904 259.209Z" fill="#FEBB94"/>
<path d="M378.581 312.04L360.846 313.359L356.654 323.249L358.087 335.457C358.087 335.457 361.139 334.213 361.454 329.895C361.77 325.576 375.888 328.64 379.578 323.897" fill="#FFCCB3"/>
<path d="M446.226 296.043L377.423 309.016C377.009 309.111 376.646 309.355 376.402 309.702C376.159 310.05 376.052 310.475 376.103 310.896L377.768 323.992C377.855 324.618 378.171 325.189 378.656 325.595C379.14 326.001 379.758 326.212 380.39 326.187L451.264 323.414L446.226 296.043Z" fill="#FEBB94"/>
<path d="M450.298 323.52C458.075 323.52 464.375 317.215 464.375 309.438C464.375 301.662 458.075 295.357 450.298 295.357C442.522 295.357 436.216 301.662 436.216 309.438C436.216 317.215 442.522 323.52 450.298 323.52Z" fill="#FEBB94"/>
<path d="M168.04 192.166L191.975 293.257L193.7 308.094H152.885L125.901 242.811L130.886 193.895L168.04 192.166Z" fill="#1F2D49"/>
<path d="M142.701 283.455L148.604 233.508L150.557 302.459L142.701 283.455Z" fill="#0D1B33"/>
<path d="M103.432 191.851C103.432 191.851 92.2712 210.602 92.1247 226.305C91.905 249.873 90.2251 308.094 90.2251 308.094H139.468L148.603 233.508L135.409 191.851H103.432Z" fill="#1F2D49"/>
<path d="M168.04 192.166L103.048 192.834L96.7319 205.907L169.138 196.805L168.04 192.166Z" fill="#0D1B33"/>
<path d="M242.999 87.9041L246.459 80.6499C247.149 78.9781 248.232 77.4969 249.616 76.3316C251.728 74.615 254.88 71.5872 255.655 69.0867C256.972 65.0941 263.131 53.733 254.316 47.9168C251.055 45.7727 251.862 46.272 246.571 47.5308C241.281 48.7891 241.687 54.479 239.833 58.6737C239.833 58.6737 238.315 54.6458 234.962 53.3953C231.608 52.1448 236.127 63.322 234.845 68.2217C233.564 73.1209 235.756 74.3802 232.124 83.2938L242.999 87.9041Z" fill="#FFCCB3"/>
<path d="M247.519 47.9865L245.375 58.7319L247.519 47.9865Z" fill="#E56441"/>
<path d="M247.519 47.9865L245.375 58.7319" stroke="#E56441" stroke-width="1.20536" stroke-linecap="round"/>
<path d="M253.532 48.48L249.863 60.2287L253.532 48.48Z" fill="#E56441"/>
<path d="M253.532 48.48L249.863 60.2287" stroke="#E56441" stroke-width="1.20536" stroke-linecap="round"/>
<path d="M258.579 54.5513L255.247 61.8185L258.579 54.5513Z" fill="#E56441"/>
<path d="M258.579 54.5513L255.247 61.8185" stroke="#E56441" stroke-width="1.20536" stroke-linecap="round"/>
<path d="M241.435 60.6459C241.435 60.6459 244.419 65.4713 245.017 69.6623L241.435 60.6459Z" fill="#E56441"/>
<path d="M241.435 60.6459C241.435 60.6459 244.419 65.4713 245.017 69.6623" stroke="#E56441" stroke-width="1.20536" stroke-linecap="round"/>
<path d="M149.901 97.9332C155.153 96.7834 163.056 96.133 166.771 98.5317L203.756 124.102L232.625 76.9114L245.549 84.0622L218.983 143.459C215.078 153.582 205.341 153.431 199.391 149.978L180.093 140.544L149.901 97.9332Z" fill="#5661AE"/>
<path d="M173.39 122.487C173.39 122.487 173.318 119.444 180.492 131.169L199.391 149.978L180.093 140.544C162.449 133.452 167.969 125.295 173.39 122.487Z" fill="#465393"/>
<path d="M149.515 90.8644C149.515 90.8644 162.617 96.0493 164.617 97.65C166.618 99.2502 168.517 112.313 171.918 118.515C175.318 124.717 180.294 136.164 173.027 146.679C165.761 157.194 166.534 165.544 166.534 165.544L168.08 191.921L105.459 193.075C104.908 193.093 104.359 192.993 103.848 192.782C103.339 192.571 102.879 192.255 102.501 191.854C102.122 191.452 101.834 190.975 101.653 190.453C101.473 189.932 101.405 189.378 101.455 188.828C102.15 181.138 105.329 170.338 105.579 158.093C105.917 141.497 106.171 86.0437 106.171 86.0437L133.45 85.1875C138.945 86.1351 149.515 90.8644 149.515 90.8644Z" fill="#5661AE"/>
<path d="M172.605 147.304C172.605 147.304 164.062 149.141 156.972 149.51C149.881 149.878 153.566 155.401 160.078 156.08C166.588 156.759 167.85 157.223 167.85 157.223C169.03 153.737 170.626 150.406 172.605 147.304Z" fill="#465393"/>
<path d="M104.55 169.794L102.357 182.508C102.357 182.508 103.804 186.301 110.55 188.627C117.296 190.953 123.344 190.255 127.298 185.834C131.253 181.413 145.031 160.997 145.031 160.997L104.55 169.794Z" fill="#465393"/>
<path d="M116.907 108.712C116.907 108.712 126.033 117.034 126.57 123.208C127.107 129.383 128.348 146.599 140.076 148.316C154.452 150.421 158.215 152.47 151.551 154.081C144.887 155.692 129.762 153.082 129.762 159.987C129.762 164.901 123.886 168.578 120.933 165.893C117.981 163.209 94.4638 122.403 116.907 108.712Z" fill="#465393"/>
<path d="M177.601 96.7584L170.482 112.152L183.368 117.663L191.064 100.186L177.601 96.7584Z" fill="#96BAFD"/>
<path d="M175.271 104.408L188.337 106.701L186.692 109.786L175.271 105.803V104.408Z" fill="#96BAFD"/>
<path d="M182.574 80.0191C179.15 78.7151 175.318 80.4342 174.014 83.8585L172.849 86.9195C171.545 90.3438 173.264 94.1769 176.688 95.4804C180.112 96.7844 183.944 95.0653 185.248 91.641L186.413 88.58C187.717 85.1557 185.998 81.3226 182.574 80.0191Z" fill="#1C85E8"/>
<path d="M198.429 81.757C216.61 89.2839 235.099 82.9129 235.099 82.9129L217.183 129.82C217.183 129.82 205.271 110.654 189.684 104.729C183.941 102.545 198.429 81.757 198.429 81.757Z" fill="#96BAFD"/>
<path d="M232.473 108.814C237.454 95.7303 239.007 84.1774 235.942 83.0101C232.877 81.8432 226.355 91.5039 221.375 104.588C216.394 117.672 214.841 129.224 217.906 130.391C220.971 131.559 227.493 121.898 232.473 108.814Z" fill="white"/>
<path d="M232.475 108.813C237.455 95.7287 239.367 84.3125 236.744 83.314C234.121 82.3149 227.957 92.1123 222.977 105.196C217.997 118.28 216.085 129.696 218.708 130.695C221.33 131.694 227.494 121.897 232.475 108.813Z" fill="#1C85E8"/>
<path d="M188.504 77.9779L201.054 82.7565L192.31 105.729L179.76 100.949C178.989 100.656 178.283 100.213 177.683 99.647C177.083 99.0807 176.6 98.4012 176.263 97.6484C175.925 96.8956 175.739 96.0836 175.715 95.2586C175.691 94.4335 175.83 93.6122 176.124 92.8412L180.397 81.6146C180.691 80.8436 181.133 80.1376 181.7 79.5375C182.266 78.9375 182.945 78.4543 183.698 78.1166C184.451 77.7789 185.262 77.5929 186.087 77.569C186.912 77.5451 187.733 77.6844 188.504 77.9779Z" fill="url(#paint2_linear_718_35)"/>
<path d="M191.757 84.1952L185.418 81.7809C184.879 81.5757 184.276 81.8464 184.071 82.3856C183.865 82.9249 184.136 83.5281 184.675 83.7333L191.014 86.1475C191.553 86.3528 192.157 86.0821 192.362 85.5428C192.567 85.0035 192.296 84.4004 191.757 84.1952Z" fill="white"/>
<path d="M189.649 88.5359L183.31 86.1216C182.77 85.9164 182.167 86.187 181.962 86.7263C181.756 87.2656 182.027 87.8688 182.566 88.074L188.906 90.4882C189.445 90.6935 190.048 90.4228 190.253 89.8835C190.458 89.3442 190.188 88.7411 189.649 88.5359Z" fill="white"/>
<path d="M225.394 99.3073L226.17 99.6299C227.332 100.113 228.263 101.025 228.77 102.177C229.278 103.328 229.322 104.631 228.895 105.814C228.665 106.449 228.307 107.03 227.843 107.52C227.379 108.01 226.818 108.398 226.196 108.661C225.575 108.924 224.905 109.055 224.23 109.047C223.556 109.039 222.89 108.891 222.275 108.613L221.808 108.402C221.808 108.402 223.189 103.088 225.394 99.3073Z" fill="url(#paint3_linear_718_35)"/>
<path d="M160.941 123.529L166.957 116.745C166.957 116.745 166.411 110.727 166.957 108.429C167.504 106.132 167.504 105.147 169.035 103.943C170.567 102.74 175.271 100.332 175.271 100.332V105.803L189.45 109.687C189.45 109.687 191.523 112.981 188.337 114.781C190.112 117.456 187.925 119.684 187.925 119.684C187.925 119.684 189.049 122.743 186.261 123.328C186.261 123.328 186.756 125.622 183.739 126.591C183.739 126.591 182.843 128.096 179.245 128.546C178.255 128.67 175.271 128.939 175.271 128.939L169.583 134.579L160.941 123.529Z" fill="#FFCCB3"/>
<path d="M162.423 121.858L172.931 131.259L174.114 130.086L163.13 121.06L162.423 121.858Z" fill="#FCBA9F"/>
<path d="M188.055 114.787C188.055 114.787 184.916 114.498 183.432 113.964L188.055 114.787Z" fill="#E56441"/>
<path d="M188.055 114.787C188.055 114.787 184.916 114.498 183.432 113.964" stroke="#E56441" stroke-width="1.20536" stroke-linecap="round"/>
<path d="M187.471 119.59C187.471 119.59 184.332 119.301 182.849 118.767L187.471 119.59Z" fill="#E56441"/>
<path d="M187.471 119.59C187.471 119.59 184.332 119.301 182.849 118.767" stroke="#E56441" stroke-width="1.20536" stroke-linecap="round"/>
<path d="M186.237 123.243C186.237 123.243 183.098 122.954 181.615 122.42L186.237 123.243Z" fill="#E56441"/>
<path d="M186.237 123.243C186.237 123.243 183.098 122.954 181.615 122.42" stroke="#E56441" stroke-width="1.20536" stroke-linecap="round"/>
<path d="M183.432 126.569C183.432 126.569 180.294 126.28 178.81 125.746L183.432 126.569Z" fill="#E56441"/>
<path d="M183.432 126.569C183.432 126.569 180.294 126.28 178.81 125.746" stroke="#E56441" stroke-width="1.20536" stroke-linecap="round"/>
<path d="M120.012 99.0282C120.012 99.0282 117.278 83.648 104.976 85.9329C96.7282 87.465 93.4973 92.0676 94.6899 104.337C95.5231 112.915 101.739 151.17 103.974 166.798C106.268 182.838 120.541 185.667 130.174 177.691L174.873 132.997L161.118 120.69L126.554 149.126L120.012 99.0282Z" fill="#5661AE"/>
<path fill-rule="evenodd" clip-rule="evenodd" d="M163.127 96.7585L150.649 91.318C148.411 102.375 149.368 100.038 147.826 100.871C147.826 100.871 134.662 101.372 131.269 85.3075L116.817 85.787C116.817 85.787 112.763 96.8426 129.992 102.21C127.282 108.688 136.812 119.771 148.981 107.285C157.414 119.858 163.082 108.13 159.01 103.578C165.097 100.034 163.127 96.7585 163.127 96.7585Z" fill="white"/>
<path d="M151.174 77.048L150.437 97.6662C150.437 97.6662 151.445 102.181 146.812 101.68C142.18 101.179 135.943 97.5306 132.436 93.5229C128.931 89.5157 129.17 89.1941 130.672 86.5643C132.175 83.9344 139.23 63.8904 139.23 63.8904L151.174 77.048Z" fill="#FFCCB3"/>
<path d="M151.068 78.777L142.526 73.3359C142.526 73.3359 146.311 89.9511 150.437 97.6661L151.068 78.777Z" fill="#FCBA9F"/>
<path d="M141.524 22.5777C141.759 18.6173 140.895 14.6694 139.028 11.1693C135.939 5.58384 129.523 -2.14107 119.78 1.18653C110.037 4.51413 102.908 12.0011 106.591 22.5777C110.275 33.1543 120.507 36.5391 125.721 35.4122C130.934 34.2854 141.524 22.5777 141.524 22.5777Z" fill="#493212"/>
<path d="M144.662 24.0485C144.101 23.1019 143.261 22.3522 142.257 21.9018C141.254 21.4513 140.135 21.3225 139.055 21.5324C135.2 22.2431 131.142 25.287 127.693 28.9404C124.243 32.5932 124.355 35.2444 125.922 36.8617C127.489 38.4785 144.662 24.0485 144.662 24.0485Z" fill="#1C85E8"/>
<path d="M173.353 48.2171C173.353 48.2171 171.297 68.0825 161.633 77.128C155.331 83.0273 149.552 81.516 140.935 69.7102C133.034 58.8857 132.339 53.6213 132.339 53.6213L140.689 34.8304C140.689 34.8304 174.336 30.0403 173.353 48.2171Z" fill="#FFCCB3"/>
<path d="M169.934 44.3274C169.934 44.3274 165.179 51.8974 156.47 52.0201C156.47 52.0201 151.221 56.939 143.222 54.3512C143.222 54.3512 146.695 49.0816 143.222 47.2352C137.324 44.0998 135.293 54.5548 138.438 58.1962C140.576 60.6708 140.697 65.1569 139.102 67.7333C137.508 70.3096 135.205 75.0846 135.205 75.0846C135.205 75.0846 130.578 71.3019 128.134 68.7048C119.634 59.6707 118.244 38.3735 132.287 28.2094C146.329 18.0448 161.112 26.1765 163.883 28.2094C163.883 28.2094 178.639 30.7868 178.665 46.1353C178.688 59.2566 169.35 62.3785 169.35 62.3785L172.137 51.7868C172.137 51.7868 170.413 51.9717 169.934 44.3274Z" fill="#493212"/>
<path d="M154.418 69.174L160.684 72.2485C160.656 72.2802 160.625 72.315 160.591 72.3514C160.397 72.5577 160.116 72.8242 159.762 73.0652C159.055 73.5453 158.083 73.9121 156.942 73.5411C155.185 72.7868 154.588 71.6183 154.413 70.6515C154.324 70.1595 154.343 69.7122 154.385 69.3875C154.395 69.308 154.407 69.2368 154.418 69.174Z" fill="#E56441" stroke="#E56441"/>
<path d="M169.086 62.0953C169.366 60.9623 168.969 59.8894 168.2 59.6993C167.432 59.5096 166.581 60.2744 166.302 61.408C166.022 62.5411 166.418 63.6139 167.187 63.8036C167.956 63.9937 168.806 63.2284 169.086 62.0953Z" fill="#080B09"/>
<path d="M157.686 59.453C157.966 58.3199 157.569 57.2471 156.8 57.0569C156.032 56.8673 155.181 57.6321 154.902 58.7657C154.622 59.8988 155.019 60.9716 155.787 61.1612C156.556 61.3514 157.407 60.5861 157.686 59.453Z" fill="#080B09"/>
<path d="M171.61 57.6928L165.809 56.3607C165.712 56.33 165.629 56.2651 165.577 56.1778C165.525 56.0911 165.505 55.9882 165.523 55.8879C165.587 55.7175 165.686 55.5617 165.812 55.4302C165.939 55.2988 166.09 55.1938 166.258 55.1227C166.426 55.0515 166.607 55.0151 166.789 55.0156C166.971 55.0156 167.151 55.053 167.319 55.1253L171.869 57.0527C172.247 57.1462 172.084 57.8097 171.61 57.6928Z" fill="#080B09"/>
<path d="M152.131 52.4991L159.687 54.8671C159.737 54.6312 159.737 54.3876 159.688 54.1512C159.638 53.9153 159.54 53.6919 159.399 53.4961C159.258 53.3002 159.077 53.136 158.869 53.0145C158.661 52.8929 158.429 52.816 158.189 52.789L152.153 52.0019C151.963 51.9551 151.847 52.429 152.131 52.4991Z" fill="#080B09"/>
<path d="M163.119 60.0142L163.938 66.1327L161.777 67.1759" stroke="#E56441" stroke-width="1.22499" stroke-linecap="round"/>
<path d="M245.057 323.523H37.2685C33.6012 323.523 30.6279 326.497 30.6279 330.165V395.063C30.6279 398.732 33.6012 401.706 37.2685 401.706H245.057C248.724 401.706 251.698 398.732 251.698 395.063V330.165C251.698 326.497 248.724 323.523 245.057 323.523Z" fill="#1C85E8"/>
<path d="M78.6702 201.616H4.23068C2.29107 201.616 0.719238 203.189 0.719238 205.128V229.996C0.719238 231.935 2.29107 233.508 4.23068 233.508H78.6702C80.6093 233.508 82.1811 231.935 82.1811 229.996V205.128C82.1811 203.189 80.6093 201.616 78.6702 201.616Z" fill="#FEBB94"/>
<path d="M99.3468 362.229H104.556C105.011 362.228 105.448 362.047 105.769 361.725C106.091 361.402 106.272 360.965 106.272 360.509C106.272 360.054 106.091 359.617 105.769 359.295C105.448 358.972 105.011 358.791 104.556 358.79H99.3468C98.8907 358.79 98.4538 358.971 98.1313 359.294C97.8087 359.616 97.6279 360.053 97.6279 360.509C97.6279 360.966 97.8087 361.403 98.1313 361.725C98.4538 362.048 98.8907 362.229 99.3468 362.229Z" fill="white"/>
<path d="M89.3463 343.578C89.3463 343.302 89.2803 343.031 89.1531 342.786C89.0258 342.541 88.8414 342.33 88.616 342.171C88.39 342.013 88.1292 341.911 87.856 341.874C87.5828 341.837 87.3043 341.867 87.0446 341.961L54.7731 353.58H47.2604C46.8043 353.58 46.3669 353.762 46.0449 354.084C45.7223 354.406 45.541 354.844 45.541 355.3V365.719C45.541 366.175 45.7223 366.612 46.0449 366.935C46.3669 367.257 46.8043 367.438 47.2604 367.438H53.354V381.347C53.354 381.573 53.3987 381.797 53.4849 382.005C53.5711 382.214 53.6979 382.404 53.8573 382.563C54.0173 382.723 54.2069 382.85 54.4152 382.936C54.624 383.023 54.8474 383.067 55.0733 383.067H64.188C64.414 383.067 64.6379 383.022 64.8462 382.936C65.055 382.85 65.2446 382.723 65.4041 382.563C65.5635 382.403 65.6903 382.214 65.7765 382.005C65.8632 381.797 65.9074 381.573 65.9074 381.347V371.448L87.0446 379.058C87.3043 379.152 87.5828 379.181 87.856 379.144C88.1292 379.108 88.39 379.006 88.6154 378.847C88.8414 378.688 89.0258 378.478 89.1531 378.233C89.2798 377.988 89.3463 377.716 89.3463 377.44V343.578ZM48.9797 363.999V357.019H53.354V363.999H48.9797ZM62.4692 379.628H56.7927V368.166L62.4692 370.209V379.628ZM56.7927 364.51V356.508L85.9081 346.025V374.994L56.7927 364.51Z" fill="white"/>
<path d="M99.2605 373.62L96.6561 371.015C96.4966 370.855 96.307 370.729 96.0982 370.642C95.8899 370.556 95.6665 370.511 95.4406 370.511C95.2146 370.511 94.9912 370.556 94.7824 370.642C94.5741 370.729 94.3845 370.855 94.2245 371.015C94.0651 371.174 93.9383 371.364 93.8521 371.573C93.7659 371.781 93.7212 372.005 93.7212 372.231C93.7212 372.457 93.7659 372.681 93.8521 372.889C93.9383 373.098 94.0651 373.287 94.2245 373.447L96.829 376.052C96.989 376.211 97.1781 376.338 97.3869 376.424C97.5957 376.511 97.8191 376.555 98.045 376.555C98.2705 376.555 98.4944 376.511 98.7027 376.424C98.9115 376.338 99.1011 376.211 99.2605 376.052C99.42 375.892 99.5468 375.702 99.633 375.494C99.7197 375.285 99.7639 375.062 99.7639 374.836C99.7639 374.61 99.7197 374.386 99.633 374.178C99.5468 373.969 99.42 373.779 99.2605 373.62Z" fill="white"/>
<path d="M94.2245 350.004C94.5471 350.327 94.9845 350.507 95.4406 350.507C95.8966 350.507 96.334 350.327 96.6561 350.004L99.2605 347.399C99.5831 347.077 99.7639 346.639 99.7639 346.183C99.7639 345.727 99.5831 345.29 99.2605 344.968C98.938 344.645 98.5006 344.464 98.0445 344.464C97.589 344.464 97.1516 344.645 96.829 344.968L94.2245 347.572C93.9025 347.895 93.7212 348.332 93.7212 348.788C93.7212 349.244 93.9025 349.681 94.2245 350.004Z" fill="white"/>
<path d="M127.79 344.959H161.794" stroke="white" stroke-width="14.8881" stroke-miterlimit="10" stroke-linecap="round"/>
<path d="M127.79 383.04H190.804" stroke="white" stroke-width="14.8881" stroke-miterlimit="10" stroke-linecap="round"/>
<path opacity="0.4" d="M127.79 363.999H208.452" stroke="white" stroke-width="14.8881" stroke-miterlimit="10" stroke-linecap="round"/>
<path d="M519.296 254.652H480.977C478.883 254.652 477.185 256.351 477.185 258.446V293.416C477.185 295.511 478.883 297.21 480.977 297.21H519.296C521.394 297.21 523.093 295.511 523.093 293.416V258.446C523.093 256.351 521.394 254.652 519.296 254.652Z" fill="#1C85E8"/>
<path d="M36.0581 224.282C35.4623 224.282 34.9257 224.18 34.4489 223.976C33.972 223.763 33.5975 223.465 33.3248 223.081C33.0526 222.698 32.916 222.251 32.916 221.74H34.4743C34.5086 222.123 34.6577 222.438 34.9216 222.686C35.1938 222.932 35.573 223.056 36.0581 223.056C36.5604 223.056 36.9521 222.937 37.2331 222.698C37.5141 222.451 37.6549 222.136 37.6549 221.753C37.6549 221.455 37.565 221.212 37.3863 221.025C37.216 220.838 36.9988 220.693 36.735 220.59C36.4799 220.488 36.122 220.377 35.6623 220.258C35.0831 220.105 34.6104 219.952 34.2447 219.799C33.8868 219.636 33.5804 219.39 33.3248 219.058C33.0698 218.725 32.942 218.283 32.942 217.729C32.942 217.218 33.0698 216.771 33.3248 216.388C33.5804 216.004 33.9383 215.711 34.398 215.506C34.8577 215.302 35.3896 215.2 35.9942 215.2C36.8544 215.2 37.5567 215.417 38.1016 215.851C38.6554 216.277 38.9618 216.865 39.0216 217.614H37.4118C37.3864 217.29 37.2331 217.014 36.9521 216.784C36.6711 216.554 36.3007 216.439 35.841 216.439C35.4239 216.439 35.0831 216.545 34.8193 216.758C34.5554 216.971 34.4234 217.278 34.4234 217.678C34.4234 217.951 34.5045 218.176 34.666 218.355C34.8364 218.525 35.0494 218.661 35.3044 218.764C35.56 218.866 35.909 218.977 36.3521 219.096C36.9396 219.258 37.4165 219.419 37.7822 219.581C38.1572 219.743 38.472 219.994 38.7276 220.335C38.9914 220.667 39.1234 221.114 39.1234 221.676C39.1234 222.128 39.0003 222.554 38.753 222.954C38.5146 223.354 38.1614 223.677 37.6928 223.925C37.2331 224.163 36.6882 224.282 36.0581 224.282ZM44.4814 217.039C45.018 217.039 45.4949 217.154 45.912 217.384C46.3379 217.614 46.6699 217.955 46.9083 218.406C47.155 218.857 47.2787 219.403 47.2787 220.041V224.193H45.8356V220.258C45.8356 219.628 45.6777 219.147 45.3629 218.815C45.0476 218.474 44.6175 218.304 44.0726 218.304C43.5277 218.304 43.0935 218.474 42.7699 218.815C42.4551 219.147 42.2977 219.628 42.2977 220.258V224.193H40.8417V214.74H42.2977V217.972C42.5444 217.674 42.8551 217.444 43.2301 217.282C43.6129 217.12 44.03 217.039 44.4814 217.039ZM48.6505 220.642C48.6505 219.935 48.7954 219.309 49.0848 218.764C49.3829 218.219 49.7829 217.797 50.2852 217.499C50.7963 217.193 51.3584 217.039 51.9713 217.039C52.5245 217.039 53.0061 217.15 53.4143 217.371C53.832 217.584 54.1639 217.852 54.4106 218.176V217.154H55.8796V224.193H54.4106V223.145C54.1639 223.477 53.8273 223.754 53.4019 223.976C52.9759 224.197 52.4908 224.308 51.9459 224.308C51.3412 224.308 50.7875 224.154 50.2852 223.848C49.7829 223.533 49.3829 223.099 49.0848 222.545C48.7954 221.983 48.6505 221.348 48.6505 220.642ZM54.4106 220.667C54.4106 220.181 54.3088 219.76 54.1042 219.403C53.9083 219.045 53.6486 218.772 53.325 218.585C53.0014 218.397 52.6523 218.304 52.2778 218.304C51.9033 218.304 51.5542 218.397 51.2306 218.585C50.907 218.764 50.6431 219.032 50.4384 219.39C50.2426 219.739 50.1449 220.156 50.1449 220.642C50.1449 221.127 50.2426 221.553 50.4384 221.919C50.6431 222.285 50.907 222.566 51.2306 222.762C51.5625 222.95 51.9116 223.043 52.2778 223.043C52.6523 223.043 53.0014 222.95 53.325 222.762C53.6486 222.575 53.9083 222.302 54.1042 221.945C54.3088 221.578 54.4106 221.152 54.4106 220.667ZM59.2482 218.176C59.4607 217.819 59.7417 217.542 60.0908 217.346C60.4486 217.141 60.8699 217.039 61.3556 217.039V218.546H60.9847C60.4144 218.546 59.9801 218.691 59.6825 218.981C59.3926 219.27 59.2482 219.773 59.2482 220.488V224.193H57.7917V217.154H59.2482V218.176ZM69.1436 220.501C69.1436 220.765 69.1265 221.003 69.0927 221.216H63.7154C63.758 221.778 63.9668 222.23 64.3414 222.57C64.7159 222.911 65.1756 223.081 65.7205 223.081C66.5038 223.081 67.0575 222.754 67.3812 222.098H68.9519C68.739 222.745 68.352 223.277 67.79 223.695C67.2362 224.103 66.5464 224.308 65.7205 224.308C65.0478 224.308 64.4437 224.158 63.9071 223.861C63.3793 223.554 62.9617 223.128 62.6552 222.583C62.3576 222.029 62.2085 221.391 62.2085 220.667C62.2085 219.943 62.3529 219.309 62.6428 218.764C62.9404 218.21 63.3534 217.784 63.8817 217.486C64.4177 217.188 65.0312 217.039 65.7205 217.039C66.3848 217.039 66.9765 217.184 67.4959 217.474C68.0154 217.763 68.42 218.172 68.7094 218.7C68.9987 219.219 69.1436 219.82 69.1436 220.501ZM67.6237 220.041C67.6154 219.505 67.4237 219.074 67.0492 218.751C66.6742 218.428 66.2103 218.265 65.6566 218.265C65.1543 218.265 64.7247 218.428 64.3668 218.751C64.0094 219.066 63.7965 219.496 63.7284 220.041H67.6237Z" fill="white"/>
<path d="M22.2253 219.79C21.7214 219.79 21.2243 219.901 20.7687 220.115C20.3132 220.329 19.9106 220.642 19.5896 221.03L15.4984 218.707C15.7613 217.967 15.7613 217.158 15.4984 216.418L19.5891 214.095C20.136 214.753 20.909 215.182 21.7567 215.298C22.6044 215.414 23.4646 215.209 24.168 214.722C24.8718 214.235 25.3674 213.503 25.5575 212.668C25.7476 211.834 25.6188 210.959 25.196 210.215C24.7726 209.472 24.0864 208.913 23.2725 208.65C22.4585 208.388 21.5754 208.44 20.7973 208.795C20.0197 209.151 19.4031 209.786 19.0701 210.574C18.7367 211.362 18.7102 212.246 18.9964 213.052L14.9058 215.376C14.4559 214.833 13.8497 214.443 13.1698 214.257C12.4898 214.072 11.7694 214.1 11.106 214.339C10.4432 214.578 9.87027 215.016 9.4651 215.593C9.05994 216.17 8.84229 216.857 8.84229 217.562C8.84229 218.267 9.05994 218.955 9.4651 219.532C9.86975 220.109 10.4432 220.546 11.106 220.786C11.7694 221.025 12.4898 221.053 13.1698 220.868C13.8497 220.682 14.4559 220.292 14.9052 219.749L18.9964 222.072C18.7538 222.757 18.7356 223.502 18.9444 224.199C19.1533 224.896 19.5782 225.508 20.1579 225.947C20.7376 226.386 21.4425 226.629 22.1692 226.641C22.8964 226.652 23.608 226.432 24.2023 226.013C24.796 225.593 25.2406 224.995 25.4723 224.306C25.7035 223.617 25.7097 222.871 25.4894 222.178C25.2692 221.485 24.8344 220.88 24.2475 220.451C23.6605 220.021 22.9525 219.79 22.2253 219.79ZM22.2253 209.681C22.6657 209.681 23.0964 209.811 23.4626 210.056C23.8293 210.301 24.1145 210.649 24.2833 211.056C24.4521 211.463 24.4963 211.911 24.41 212.343C24.3243 212.775 24.1119 213.172 23.8007 213.484C23.4891 213.795 23.0922 214.007 22.66 214.094C22.2279 214.179 21.7801 214.135 21.3728 213.967C20.9656 213.798 20.6181 213.512 20.3734 213.146C20.1288 212.779 19.9979 212.348 19.9984 211.908C19.9989 211.318 20.2337 210.751 20.6513 210.334C21.0684 209.916 21.6346 209.681 22.2253 209.681ZM12.2706 219.79C11.8301 219.79 11.3995 219.659 11.0333 219.415C10.6671 219.17 10.3814 218.822 10.2131 218.415C10.0443 218.008 10.0001 217.56 10.0858 217.128C10.1721 216.696 10.384 216.299 10.6951 215.988C11.0068 215.676 11.4037 215.464 11.8358 215.378C12.2675 215.292 12.7153 215.336 13.1225 215.505C13.5292 215.673 13.8767 215.959 14.1219 216.325C14.3666 216.691 14.497 217.122 14.497 217.562C14.4964 218.153 14.2616 218.719 13.844 219.137C13.4269 219.554 12.8607 219.789 12.2706 219.79ZM22.2253 225.444C21.7848 225.444 21.3541 225.313 20.9874 225.069C20.6212 224.824 20.3355 224.476 20.1672 224.069C19.9984 223.662 19.9542 223.214 20.04 222.782C20.1262 222.349 20.3381 221.952 20.6498 221.641C20.9609 221.33 21.3578 221.117 21.79 221.031C22.2221 220.946 22.6699 220.989 23.0771 221.158C23.4839 221.327 23.8319 221.612 24.0766 221.979C24.3212 222.345 24.4516 222.776 24.4516 223.217C24.4511 223.807 24.2163 224.373 23.7986 224.791C23.3815 225.208 22.8153 225.443 22.2253 225.444Z" fill="white"/>
<path d="M485.85 282.397L492.519 275.725C492.956 275.289 493.548 275.044 494.161 275.044C494.779 275.044 495.371 275.289 495.807 275.725L501.023 280.943C501.459 281.379 502.051 281.624 502.669 281.624C503.282 281.624 503.874 281.379 504.311 280.943L512.84 272.414" stroke="white" stroke-width="5.16228" stroke-miterlimit="10" stroke-linecap="round"/>
<path d="M508.882 270.878H513.624C513.837 270.878 514.045 270.963 514.196 271.115C514.346 271.266 514.429 271.472 514.429 271.686V275.978" stroke="white" stroke-width="5.16228" stroke-miterlimit="10" stroke-linecap="round"/>
<path d="M403.952 190.217C405.149 187.492 404.438 184.545 402.365 183.635C400.293 182.725 397.642 184.196 396.446 186.922C395.25 189.647 395.96 192.594 398.033 193.504C400.106 194.415 402.756 192.943 403.952 190.217Z" stroke="#080B09" stroke-miterlimit="10"/>
<path d="M392.06 185.135C393.256 182.41 392.546 179.463 390.473 178.552C388.4 177.642 385.75 179.114 384.554 181.839C383.357 184.565 384.068 187.512 386.141 188.422C388.214 189.332 390.864 187.861 392.06 185.135Z" stroke="#080B09" stroke-miterlimit="10"/>
<path d="M392.061 185.138C392.061 185.138 394.924 185.087 396.446 186.922" stroke="#080B09" stroke-miterlimit="10"/>
<path d="M403.605 190.896H415.942" stroke="#080B09" stroke-miterlimit="10"/>
<path d="M148.981 107.285C148.981 107.285 149.826 118.683 148.981 127.718" stroke="#96BAFD" stroke-miterlimit="10"/>
<path fill-rule="evenodd" clip-rule="evenodd" d="M401.39 224.46C412.909 217.246 414.82 212.755 414.82 212.755L419.672 222.157L406.215 232.301C405.676 230.877 405.016 229.501 404.243 228.19L400.455 231.209L401.39 224.46ZM387.451 222.096L392.421 218.377C392.421 218.377 392.031 221.823 397.175 224.167L397.603 230.567L395.112 228.152L391.795 232.531L387.451 222.096Z" fill="#1C85E8"/>
<path d="M400.456 231.208L401.39 224.46L404.243 228.19L400.456 231.208Z" fill="#1C85E8"/>
<path d="M397.175 224.167L395.112 228.152L397.603 230.567L397.175 224.167Z" fill="#1C85E8"/>
<path d="M397.603 230.567L399.173 249.963C399.195 250.234 399.308 250.489 399.494 250.688C399.68 250.886 399.928 251.016 400.197 251.056C400.374 251.082 400.554 251.068 400.725 251.016C400.896 250.963 401.053 250.873 401.185 250.752C401.317 250.631 401.42 250.482 401.487 250.316C401.554 250.151 401.583 249.972 401.573 249.793L400.456 231.208L399.241 232.301L397.603 230.567Z" fill="#1C85E8"/>
<path d="M404.506 239.018C405.334 239.018 406.006 238.346 406.006 237.518C406.006 236.689 405.334 236.017 404.506 236.017C403.677 236.017 403.006 236.689 403.006 237.518C403.006 238.346 403.677 239.018 404.506 239.018Z" fill="#1C85E8"/>
<path d="M404.993 247.853C405.822 247.853 406.493 247.181 406.493 246.353C406.493 245.524 405.822 244.852 404.993 244.852C404.165 244.852 403.494 245.524 403.494 246.353C403.494 247.181 404.165 247.853 404.993 247.853Z" fill="#1C85E8"/>
<defs>
<linearGradient id="paint0_linear_718_35" x1="136.103" y1="83.4314" x2="188.105" y2="558.529" gradientUnits="userSpaceOnUse">
<stop stop-color="white"/>
<stop offset="1" stop-color="#94B9FF"/>
</linearGradient>
<linearGradient id="paint1_linear_718_35" x1="381.224" y1="207.497" x2="433.226" y2="682.593" gradientUnits="userSpaceOnUse">
<stop stop-color="white"/>
<stop offset="1" stop-color="#94B9FF"/>
</linearGradient>
<linearGradient id="paint2_linear_718_35" x1="191.406" y1="79.0201" x2="179.521" y2="129.903" gradientUnits="userSpaceOnUse">
<stop stop-color="white"/>
<stop offset="1" stop-color="#94B9FF"/>
</linearGradient>
<linearGradient id="paint3_linear_718_35" x1="225.313" y1="99.2839" x2="228.243" y2="119.758" gradientUnits="userSpaceOnUse">
<stop stop-color="white"/>
<stop offset="1" stop-color="#94B9FF"/>
</linearGradient>
</defs>
</svg>
